<?xml version="1.0" encoding="UTF-8"?>
<svg width="52px" height="60px" viewBox="0 0 52 60" version="1.1" xmlns="http://www.w3.org/2000/svg" xmlns:xlink="http://www.w3.org/1999/xlink">
    <!-- Generator: Sketch 62 (91390) - https://sketch.com -->
    <title>compass</title>
    <desc>Created with Sketch.</desc>
    <defs>
        <linearGradient x1="12.1312472%" y1="50%" x2="89.9009544%" y2="48.0679836%" id="linearGradient-1">
            <stop stop-color="#7ED56F" offset="0%"></stop>
            <stop stop-color="#74D172" offset="13.4565063%"></stop>
            <stop stop-color="#75D271" offset="13.4758441%"></stop>
            <stop stop-color="#3DBC80" offset="33.6662359%"></stop>
            <stop stop-color="#3ABB80" offset="56.7639266%"></stop>
            <stop stop-color="#29B485" offset="64.8005613%"></stop>
            <stop stop-color="#28B485" offset="100%"></stop>
        </linearGradient>
        <linearGradient x1="0%" y1="50%" x2="102.683217%" y2="48.0680492%" id="linearGradient-2">
            <stop stop-color="#7ED56F" offset="0%"></stop>
            <stop stop-color="#74D172" offset="13.4565063%"></stop>
            <stop stop-color="#75D271" offset="13.4758441%"></stop>
            <stop stop-color="#3DBC80" offset="33.6662359%"></stop>
            <stop stop-color="#3ABB80" offset="56.7639266%"></stop>
            <stop stop-color="#29B485" offset="64.8005613%"></stop>
            <stop stop-color="#28B485" offset="100%"></stop>
        </linearGradient>
        <linearGradient x1="0%" y1="50%" x2="102.683217%" y2="48.0679836%" id="linearGradient-3">
            <stop stop-color="#7ED56F" offset="0%"></stop>
            <stop stop-color="#74D172" offset="13.4565063%"></stop>
            <stop stop-color="#75D271" offset="13.4758441%"></stop>
            <stop stop-color="#3DBC80" offset="33.6662359%"></stop>
            <stop stop-color="#3ABB80" offset="56.7639266%"></stop>
            <stop stop-color="#29B485" offset="64.8005613%"></stop>
            <stop stop-color="#28B485" offset="100%"></stop>
        </linearGradient>
    </defs>
    <g id="Page-1" stroke="none" stroke-width="1" fill="none" fill-rule="evenodd">
        <g id="compass" fill-rule="nonzero">
            <path d="M25.8142857,59.3245714 C40.0481714,59.3245714 51.6285714,47.7441714 51.6285714,33.5102857 C51.6285714,20.3520571 41.73,9.4692 28.99,7.89805714 C29.8606286,7.06234286 30.4051429,5.89011429 30.4051429,4.59085714 C30.4051429,2.05994286 28.3459429,0 25.8142857,0 C23.2826286,0 21.2234286,2.0592 21.2234286,4.59085714 C21.2234286,5.89011429 21.7686857,7.06234286 22.6385714,7.89805714 C9.89857143,9.4692 0,20.3520571 0,33.5102857 C0,47.7441714 11.5804,59.3245714 25.8142857,59.3245714 Z M22.7091429,4.59085714 C22.7091429,2.87857143 24.102,1.48571429 25.8142857,1.48571429 C27.5265714,1.48571429 28.9194286,2.87857143 28.9194286,4.59085714 C28.9194286,6.30314286 27.5265714,7.696 25.8142857,7.696 C24.102,7.696 22.7091429,6.30314286 22.7091429,4.59085714 Z M25.8142857,9.18171429 C39.2295429,9.18171429 50.1428571,20.0950286 50.1428571,33.5102857 C50.1428571,46.9255429 39.2295429,57.8388571 25.8142857,57.8388571 C12.3990286,57.8388571 1.48571429,46.9255429 1.48571429,33.5102857 C1.48571429,20.0950286 12.3990286,9.18171429 25.8142857,9.18171429 Z" id="Shape" fill="url(#linearGradient-1)"></path>
            <path d="M10.4757714,49.0842857 C10.5092,49.1466857 10.5418857,49.2105714 10.5946286,49.2633143 C10.6614857,49.3301714 10.7402286,49.3784571 10.8219429,49.4141143 C14.7405143,53.1105714 20.0155429,55.3829714 25.8150286,55.3829714 C37.8753143,55.3829714 47.6877143,45.5705714 47.6877143,33.5102857 C47.6877143,21.45 37.8745714,11.6376 25.8142857,11.6376 C13.754,11.6376 3.9416,21.45 3.9416,33.5102857 C3.9416,39.6002286 6.44577143,45.1144571 10.4757714,49.0842857 Z M11.1049714,19.4160571 L13.5660571,21.8764 C13.7109143,22.0212571 13.9010857,22.0940571 14.0912571,22.0940571 C14.2814286,22.0940571 14.4716,22.0212571 14.6164571,21.8764 C14.9069143,21.5859429 14.9069143,21.1164571 14.6164571,20.826 L12.168,18.3782857 C15.6408571,15.2434286 20.1945714,13.2889714 25.194,13.1389143 L25.194,16.6177143 C25.194,17.0285143 25.5260571,17.3605714 25.9368571,17.3605714 C26.3476571,17.3605714 26.6797143,17.0285143 26.6797143,16.6177143 L26.6797143,13.1448571 C31.8269714,13.3610286 36.4839429,15.4952571 39.9582857,18.8485143 L37.4355429,21.3712571 C37.1450857,21.6617143 37.1450857,22.1312 37.4355429,22.4216571 C37.5804,22.5665143 37.7705714,22.6393143 37.9607429,22.6393143 C38.1509143,22.6393143 38.3410857,22.5665143 38.4859429,22.4216571 L40.9908571,19.9167429 C43.9897714,23.2618286 45.9018857,27.5986286 46.1670857,32.3685143 L42.7766857,32.3685143 C42.3658857,32.3685143 42.0338286,32.7005714 42.0338286,33.1113714 C42.0338286,33.5221714 42.3658857,33.8542286 42.7766857,33.8542286 L46.1923429,33.8542286 C46.1069143,38.9628571 44.1383429,43.6198286 40.9455429,47.1565714 L38.7310857,44.9421143 C38.4406286,44.6516571 37.9711429,44.6516571 37.6806857,44.9421143 C37.3902286,45.2325714 37.3902286,45.7020571 37.6806857,45.9925143 L39.9077714,48.2196 C36.4378857,51.5453714 31.8017143,53.6602857 26.6789714,53.8757143 L26.6789714,50.8032571 C26.6789714,50.3924571 26.3469143,50.0604 25.9361143,50.0604 C25.5253143,50.0604 25.1932571,50.3924571 25.1932571,50.8032571 L25.1932571,53.8824 C20.2183429,53.7323429 15.6861714,51.7957143 12.22,48.6883429 L14.3133714,46.5949714 C14.6038286,46.3045143 14.6038286,45.8350286 14.3133714,45.5445714 C14.0229143,45.2541143 13.5534286,45.2541143 13.2629714,45.5445714 L11.1525143,47.6550286 C7.68634286,44.0633143 5.52462857,39.208 5.43548571,33.8542286 L8.67211429,33.8542286 C9.08291429,33.8542286 9.41497143,33.5221714 9.41497143,33.1113714 C9.41497143,32.7005714 9.08291429,32.3685143 8.67211429,32.3685143 L5.46,32.3685143 C5.73931429,27.3557143 7.83862857,22.8235429 11.1049714,19.4160571 Z" id="Shape" fill="url(#linearGradient-2)"></path>
            <path d="M16.6474286,43.7424 C16.7625714,43.7424 16.8792,43.7156571 16.9869143,43.6606857 L29.2626286,37.3575429 C29.4008,37.2862286 29.5129714,37.1740571 29.5842857,37.0358857 L35.8874286,24.7601714 C36.0345143,24.4726857 35.9802857,24.1235429 35.7514857,23.8954857 C35.5226857,23.6659429 35.1728,23.6124571 34.8868,23.7595429 L22.6110857,30.0626857 C22.4729143,30.134 22.3607429,30.2461714 22.2894286,30.3843429 L15.9862857,42.6600571 C15.8392,42.9475429 15.8934286,43.2966857 16.1222286,43.5247429 C16.2656,43.6681143 16.4550286,43.7424 16.6474286,43.7424 Z M23.5032571,31.2757714 L33.5110286,26.1366857 L28.3719429,36.1444571 L18.3641714,41.2835429 L23.5032571,31.2757714 Z" id="Shape" fill="url(#linearGradient-3)"></path>
        </g>
    </g>
</svg>