<?xml version="1.0" encoding="UTF-8"?>
<svg width="40px" height="35px" viewBox="0 0 40 35" version="1.1" xmlns="http://www.w3.org/2000/svg" xmlns:xlink="http://www.w3.org/1999/xlink">
    <!-- Generator: Sketch 62 (91390) - https://sketch.com -->
    <title>heart</title>
    <desc>Created with Sketch.</desc>
    <defs>
        <linearGradient x1="1.99428041%" y1="48.667247%" x2="102.683217%" y2="48.5207999%" id="linearGradient-1">
            <stop stop-color="#7ED56F" offset="0%"></stop>
            <stop stop-color="#74D172" offset="13.4565063%"></stop>
            <stop stop-color="#29B485" offset="24.7361347%"></stop>
            <stop stop-color="#3DBC80" offset="42.4897448%"></stop>
            <stop stop-color="#75D271" offset="63.4223782%"></stop>
            <stop stop-color="#3ABB80" offset="85.577607%"></stop>
            <stop stop-color="#28B485" offset="100%"></stop>
        </linearGradient>
    </defs>
    <g id="Page-1" stroke="none" stroke-width="1" fill="none" fill-rule="evenodd">
        <g id="heart" fill="url(#linearGradient-1)" fill-rule="nonzero">
            <path d="M39.2338008,6.60049628 C37.6237315,2.60545906 33.8814083,0 29.6604158,0 C24.5691156,0 21.6100693,3.38709677 20.2610923,5.4280397 L20,5.81885856 L19.7389077,5.4280397 C18.4334461,3.38709677 15.4308844,0 10.3395842,0 C6.11859174,0 2.37626851,2.60545906 0.766199213,6.60049628 C-0.104108515,8.81513648 -1.49660088,14.6774194 4.85664553,21.2344913 L4.85664553,21.2344913 L16.5622845,32.7853598 C16.5622845,32.7853598 16.5622845,32.7853598 16.6057999,32.8287841 C16.7798614,32.9590571 16.9104076,33.1327543 17.0844691,33.3064516 C17.8677461,34.044665 18.8250846,35 20,35 L20,35 L20,35 C21.1749154,35 22.1322539,34.0880893 22.9155309,33.3064516 C23.0895924,33.1327543 23.263654,32.9590571 23.3942001,32.8287841 C23.3942001,32.8287841 23.3942001,32.8287841 23.4377155,32.7853598 L35.1433545,21.2344913 L35.1433545,21.2344913 C41.4966009,14.6774194 40.1041085,8.81513648 39.2338008,6.60049628 Z M34.3165621,20.3225806 L34.3165621,20.3225806 L34.3165621,20.3225806 L22.6109232,31.8300248 L22.6109232,31.8300248 L22.6109232,31.8300248 C22.4368616,31.9602978 22.2628001,32.133995 22.0887385,32.3076923 C21.4360078,32.9590571 20.6962462,33.6538462 20,33.6538462 C19.3037538,33.6538462 18.5204769,32.9156328 17.9112615,32.3076923 L17.9112615,32.3076923 C17.7371999,32.133995 17.5631384,31.9602978 17.3890768,31.8300248 L17.3890768,31.8300248 L17.3890768,31.8300248 L5.68343788,20.3225806 L5.68343788,20.3225806 L5.68343788,20.3225806 C1.59299155,16.1104218 0.20049919,11.2903226 1.89759926,7.12158809 C3.29009162,3.60421836 6.64077638,1.30272953 10.3395842,1.30272953 C16.5622845,1.30272953 19.3037538,7.07816377 19.4343,7.382134 L19.4343,7.382134 L19.4343,7.42555831 C19.5213307,7.6426799 19.7389077,7.77295285 20,7.77295285 C20.2175769,7.77295285 20.4351539,7.6426799 20.5221846,7.42555831 L20.5221846,7.382134 C20.6092154,7.16501241 23.4377155,1.30272953 29.6169004,1.30272953 C33.3592236,1.30272953 36.666393,3.60421836 38.0588854,7.12158809 C39.7995008,11.2903226 38.4070084,16.1104218 34.3165621,20.3225806 Z" id="Shape"></path>
        </g>
    </g>
</svg>