<?xml version="1.0" encoding="UTF-8"?>
<svg width="41px" height="39px" viewBox="0 0 41 39" version="1.1" xmlns="http://www.w3.org/2000/svg" xmlns:xlink="http://www.w3.org/1999/xlink">
    <!-- Generator: Sketch 62 (91390) - https://sketch.com -->
    <title>maps</title>
    <desc>Created with Sketch.</desc>
    <defs>
        <linearGradient x1="1.99428041%" y1="48.4249474%" x2="102.683217%" y2="48.2518757%" id="linearGradient-1">
            <stop stop-color="#7ED56F" offset="0%"></stop>
            <stop stop-color="#74D172" offset="13.4565063%"></stop>
            <stop stop-color="#29B485" offset="24.7361347%"></stop>
            <stop stop-color="#3DBC80" offset="42.4897448%"></stop>
            <stop stop-color="#75D271" offset="63.4223782%"></stop>
            <stop stop-color="#3ABB80" offset="85.577607%"></stop>
            <stop stop-color="#28B485" offset="100%"></stop>
        </linearGradient>
    </defs>
    <g id="Page-1" stroke="none" stroke-width="1" fill="none" fill-rule="evenodd">
        <g id="maps" fill="url(#linearGradient-1)" fill-rule="nonzero">
            <path d="M27.3217322,0.0253955497 L40.6189212,4.48245802 C40.8420924,4.55625026 41.0042073,4.78601183 40.9999168,5.02218042 L40.9999168,38.4501099 C40.9942898,38.7985408 40.6018011,39.0812857 40.2726402,38.9724219 L27.1485917,34.5676185 L14.0245426,38.9724219 C13.9130124,39.0091927 13.7897918,39.0091927 13.6782616,38.9724219 L0.38107098,34.5153595 C0.163440311,34.4433779 0.00304296223,34.2234219 7.99548966e-05,33.9930475 L7.99548966e-05,0.565117958 C-0.00648669029,0.210915204 0.392706021,-0.0853290246 0.727351958,0.0253955497 L13.8514021,4.43022681 L26.9754512,0.0253955497 C27.1148501,-0.0136037469 27.2489301,-0.00290679695 27.3217322,0.0253955497 L27.3217322,0.0253955497 Z M27.7026413,1.33120343 L27.7026413,33.5752536 L39.8917311,37.6666698 L39.8917311,5.42264749 L27.7026413,1.33120343 Z M26.5945421,1.33120343 L14.4054517,5.42264749 L14.4054517,37.6666698 L26.5945421,33.5752536 L26.5945421,1.33120343 Z M1.10826103,1.33120343 L1.10826103,33.5752536 L13.2973526,37.6666698 L13.2973526,5.42264749 L1.10826103,1.33120343 Z" id="Shape"></path>
        </g>
    </g>
</svg>