<?xml version="1.0" encoding="UTF-8"?>
<svg width="60px" height="60px" viewBox="0 0 60 60" version="1.1" xmlns="http://www.w3.org/2000/svg" xmlns:xlink="http://www.w3.org/1999/xlink">
    <!-- Generator: Sketch 62 (91390) - https://sketch.com -->
    <title>Shape</title>
    <desc>Created with Sketch.</desc>
    <defs>
        <linearGradient x1="0%" y1="50%" x2="102.683217%" y2="48.0679836%" id="linearGradient-1">
            <stop stop-color="#7ED56F" offset="0%"></stop>
            <stop stop-color="#74D172" offset="13.4565063%"></stop>
            <stop stop-color="#75D271" offset="13.4758441%"></stop>
            <stop stop-color="#3DBC80" offset="33.6662359%"></stop>
            <stop stop-color="#3ABB80" offset="56.7639266%"></stop>
            <stop stop-color="#29B485" offset="64.8005613%"></stop>
            <stop stop-color="#28B485" offset="100%"></stop>
        </linearGradient>
    </defs>
    <g id="Page-1" stroke="none" stroke-width="1" fill="none" fill-rule="evenodd">
        <g id="noun_world_1907334" fill="url(#linearGradient-1)">
            <path d="M30,0 C13.4314575,0 -7.10542736e-15,13.4314575 -7.10542736e-15,30 C-7.10542736e-15,46.5685425 13.4314575,60 30,60 C46.5685425,60 60,46.5685425 60,30 C59.981263,13.4392249 46.5607751,0.0187370435 30,0 Z M43.686,45.756 C45.1702977,40.9762823 45.9455476,36.00471 45.987,31 L57.975,31 C57.7485143,37.4821019 55.2688358,43.682359 50.963,48.533 C48.6454484,47.345657 46.2053689,46.4144902 43.686,45.756 Z M9.037,48.533 C4.73116417,43.682359 2.25148568,37.4821019 2.025,31 L14.013,31 C14.0541285,36.0046605 14.8290413,40.9762317 16.313,45.756 C13.7938085,46.4140429 11.3540126,47.3452294 9.037,48.533 Z M16.314,14.244 C14.8297023,19.0237177 14.0544524,23.99529 14.013,29 L2.025,29 C2.25148568,22.5178981 4.73116417,16.317641 9.037,11.467 C11.3545516,12.654343 13.7946311,13.5855098 16.314,14.244 Z M29,29 L16.013,29 C16.0610869,24.1565865 16.8236338,19.346779 18.276,14.726 C21.798858,15.5057427 25.3922098,15.923247 29,15.972 L29,29 Z M29,31 L29,44.028 C25.391872,44.076636 21.7981767,44.4941413 18.275,45.274 C16.8234712,40.6530529 16.0612733,35.8433209 16.013,31 L29,31 Z M31,31 L43.987,31 C43.9389131,35.8434135 43.1763662,40.653221 41.724,45.274 C38.201142,44.4942573 34.6077902,44.076753 31,44.028 L31,31 Z M31,29 L31,15.972 C34.608128,15.923364 38.2018233,15.5058587 41.725,14.726 C43.1765288,19.3469471 43.9387267,24.1566791 43.987,29 L31,29 Z M31,13.972 L31,2.079 C35.076,2.658 38.674,6.739 41.045,12.826 C37.7428519,13.539539 34.3780113,13.9234222 31,13.972 L31,13.972 Z M29,2.079 L29,13.972 C25.6219963,13.9233038 22.2571674,13.5394219 18.955,12.826 C21.326,6.739 24.924,2.658 29,2.079 Z M29,46.028 L29,57.921 C24.924,57.342 21.326,53.261 18.955,47.174 C22.2571481,46.460461 25.6219887,46.0765778 29,46.028 L29,46.028 Z M31,57.921 L31,46.028 C34.3780037,46.0766962 37.7428326,46.4605781 41.045,47.174 C38.674,53.261 35.076,57.342 31,57.921 Z M45.987,29 C45.9458715,23.9953395 45.1709587,19.0237683 43.687,14.244 C46.2065343,13.5860261 48.646669,12.6548383 50.964,11.467 C55.269473,16.3177818 57.7487919,22.5180241 57.975,29 L45.987,29 Z M49.524,9.957 C47.4409222,10.9730706 45.2609576,11.7771147 43.017,12.357 C41.7728399,8.76018366 39.6916551,5.51056025 36.945,2.876 C41.6850588,4.09575093 46.0223398,6.53730325 49.524,9.957 L49.524,9.957 Z M16.983,12.357 C14.7390081,11.7772245 12.5590326,10.9731764 10.476,9.957 C13.9773173,6.53621295 18.3146287,4.09360906 23.055,2.873 C20.3083449,5.50756025 18.2271601,8.75718366 16.983,12.354 L16.983,12.357 Z M10.476,50.043 C12.5590087,49.0267675 14.7389899,48.2227173 16.983,47.643 C18.2271601,51.2398163 20.3083449,54.4894398 23.055,57.124 C18.3149412,55.9042491 13.9776602,53.4626967 10.476,50.043 L10.476,50.043 Z M43.017,47.643 C45.2609919,48.2227755 47.4409674,49.0268236 49.524,50.043 C46.0226827,53.4637871 41.6853713,55.9063909 36.945,57.127 C39.6916551,54.4924398 41.7728399,51.2428163 43.017,47.646 L43.017,47.643 Z" id="Shape"></path>
        </g>
    </g>
</svg>